<?xml version="1.0" encoding="utf-8"?>
<!-- Generator: Adobe Illustrator 27.5.0, SVG Export Plug-In . SVG Version: 6.00 Build 0)  -->
<svg version="1.1" xmlns="http://www.w3.org/2000/svg" xmlns:xlink="http://www.w3.org/1999/xlink" x="0px" y="0px"
	 viewBox="0 0 750 500" style="enable-background:new 0 0 750 500;" xml:space="preserve">
<g id="BACKGROUND">
	<rect style="fill:#FFFFFF;" width="750" height="500"/>
</g>
<g id="OBJECTS">
	<g>
		<g>
			<path style="fill:#5195A8;" d="M547.522,472.079H342.464c-1.053,0-1.907-0.854-1.907-1.907l0,0c0-1.053,0.854-1.907,1.907-1.907
				h205.059c1.053,0,1.907,0.854,1.907,1.907l0,0C549.429,471.226,548.576,472.079,547.522,472.079z"/>
			<path style="fill:#5195A8;" d="M643.206,460.558H83.386c-1.053,0-1.907-0.854-1.907-1.907l0,0c0-1.053,0.854-1.907,1.907-1.907
				h559.819c1.053,0,1.907,0.854,1.907,1.907l0,0C645.112,459.704,644.259,460.558,643.206,460.558z"/>
			<path style="fill:#5195A8;" d="M295.242,471.999H111.035c-1.053,0-1.907-0.854-1.907-1.907l0,0c0-1.053,0.854-1.907,1.907-1.907
				h184.207c1.053,0,1.907,0.854,1.907,1.907l0,0C297.149,471.146,296.295,471.999,295.242,471.999z"/>
		</g>
		<path style="fill:#D1F4F5;" d="M600.599,456.5H135.735c-51.586-49.943-78.005-126.011-70.077-197.373
			s50.389-138.087,111.678-175.491c16.574-10.115,35.653-18.379,54.882-15.686c19.229,2.693,37.382,20.039,34.743,39.275
			c-1.898,13.833-13.63,26.484-10.057,39.982c3.248,12.267,18.391,18.031,30.836,15.554c12.446-2.477,22.775-10.809,32.801-18.587
			c30.806-23.9,64.099-45.15,100.7-58.59s76.798-18.774,114.944-10.702c76.883,16.269,135.442,87.787,147.541,165.434
			C695.824,317.965,651.25,396.415,600.599,456.5z"/>
		<g>
			<g>
				<g>
					<g>
						<rect x="196.318" y="329.891" style="fill:#A64F5A;" width="83.425" height="126.609"/>
						<rect x="97.362" y="329.891" style="fill:#BD6C67;" width="98.956" height="126.609"/>
						<rect x="136.477" y="329.891" style="opacity:0.5;fill:#FFFFFF;" width="16.465" height="15.536"/>
						<rect x="238.021" y="329.891" style="opacity:0.5;fill:#FFFFFF;" width="9.56" height="15.536"/>
						<rect x="136.477" y="442.914" style="opacity:0.5;fill:#FFFFFF;" width="16.465" height="13.586"/>
						<rect x="238.021" y="442.914" style="opacity:0.5;fill:#FFFFFF;" width="9.56" height="13.586"/>
						<path style="opacity:0.2;fill:#422C4F;" d="M196.318,329.891V456.5h83.425v-2.867h-46.424
							c-17.306,0-31.336-14.03-31.336-31.336v-92.406H196.318z"/>
					</g>
					<g>
						<rect x="271.725" y="356.649" style="fill:#BD6C67;" width="83.425" height="99.851"/>
						<rect x="172.769" y="356.649" style="fill:#DF8D6D;" width="98.956" height="99.851"/>
						<rect x="211.885" y="356.649" style="opacity:0.5;fill:#FFFFFF;" width="16.465" height="15.536"/>
						<rect x="313.428" y="356.649" style="opacity:0.5;fill:#FFFFFF;" width="9.56" height="15.536"/>
						<rect x="211.885" y="442.914" style="opacity:0.5;fill:#FFFFFF;" width="16.465" height="13.586"/>
						<rect x="313.428" y="442.914" style="opacity:0.5;fill:#FFFFFF;" width="9.56" height="13.586"/>
						<path style="opacity:0.2;fill:#422C4F;" d="M271.725,356.649V456.5h83.425v-2.867h-46.423
							c-17.307,0-31.336-14.03-31.336-31.336v-65.648H271.725z"/>
						<g>
							
								<rect x="193.436" y="383.243" transform="matrix(0.9972 -0.0748 0.0748 0.9972 -29.1483 17.9272)" style="fill:#FBEED1;" width="62.803" height="29.973"/>
							<g>
								<path style="fill:#454F6B;" d="M208.51,400.391c-0.105,0.3-0.202,0.598-0.294,0.896c-0.126,0.351-0.269,0.634-0.43,0.849
									c-0.354,0.52-0.708,1.035-1.062,1.543c-0.423,0.614-0.814,1.049-1.175,1.304c-0.115,0.16-0.242,0.328-0.38,0.504
									c-0.139,0.175-0.284,0.268-0.435,0.28c-0.076,0.006-0.165-0.007-0.268-0.037c-0.104-0.03-0.217-0.066-0.34-0.107
									c-0.124-0.042-0.215-0.117-0.274-0.226c-0.077-0.526-0.139-1.092-0.184-1.696c-0.046-0.617-0.09-1.538-0.131-2.764
									c-0.041-1.225-0.085-2.146-0.131-2.763c-0.061-0.819-0.15-1.566-0.263-2.241c-0.014-0.012-0.163-0.146-0.448-0.403
									c-0.176-0.151-0.269-0.296-0.279-0.435c-0.005-0.063,0.003-0.126,0.024-0.192c0.051-0.156,0.184-0.254,0.396-0.296
									c0.162-0.037,0.324-0.069,0.487-0.094c1.075,0.147,2.228,0.656,3.458,1.527c0.321,0.229,0.587,0.476,0.796,0.738
									c0.672,0.849,1.037,1.664,1.096,2.444C208.699,399.624,208.646,400.014,208.51,400.391z M206.998,398.472
									c-0.173-0.785-0.899-1.433-2.178-1.945c0.07,2.11,0.212,4.341,0.426,6.693c1.316-1.53,1.926-2.937,1.83-4.222
									C207.062,398.822,207.036,398.647,206.998,398.472z"/>
								<path style="fill:#454F6B;" d="M216.074,399.919c-0.618,1.731-1.595,2.805-2.931,3.221c-0.161,0.05-0.324,0.081-0.487,0.094
									c-0.717,0.054-1.471-0.282-2.26-1.009c-0.531-0.492-0.828-1.16-0.891-2.004c-0.07-0.932,0.132-1.954,0.606-3.066
									c0.205-0.471,0.466-0.883,0.782-1.237c0.361-0.419,0.718-0.643,1.071-0.669c0.201-0.015,0.396,0.046,0.583,0.184
									c0.188,0.138,0.675,0.304,1.462,0.498c0.62,0.156,1.073,0.464,1.361,0.924c0.504,0.811,0.779,1.518,0.824,2.123
									C216.218,399.319,216.178,399.633,216.074,399.919z M214.474,398.861c-0.157-0.912-0.444-1.442-0.86-1.588
									c-0.065-0.02-0.123-0.029-0.173-0.025c-0.151,0.011-0.331,0.151-0.538,0.42c-0.231,0.309-0.413,0.493-0.548,0.554
									c-0.085,0.044-0.215,0.016-0.386-0.085c-0.173-0.101-0.284-0.15-0.334-0.146c-0.038,0.003-0.068,0.018-0.091,0.045
									c-0.413,0.411-0.589,1.013-0.529,1.807c0.041,0.542,0.201,0.992,0.481,1.351c0.391,0.49,0.706,0.726,0.946,0.708
									c0.554-0.042,1.064-0.428,1.528-1.159C214.412,400.05,214.579,399.424,214.474,398.861z"/>
								<path style="fill:#454F6B;" d="M224.362,391.889c-0.05,1.701-0.093,3.408-0.129,5.12c-0.063,2.031-0.044,3.72,0.057,5.068
									c0.033,0.441,0.078,0.874,0.135,1.3c0.027,0.201-0.032,0.382-0.178,0.546c-0.146,0.163-0.32,0.252-0.521,0.267
									c-0.391,0.029-0.738-0.21-1.042-0.72c-0.924-1.514-2.111-3.907-3.559-7.18c-0.031-0.074-0.065-0.109-0.103-0.106
									c-0.088,0.007-0.138,0.099-0.15,0.277c-0.079,1.817-0.044,3.72,0.105,5.71c0.072,0.957,0.17,1.931,0.295,2.923
									c0.04,0.364-0.048,0.624-0.264,0.779c-0.082,0.095-0.173,0.146-0.273,0.154c-0.089,0.007-0.205-0.023-0.349-0.088
									c-0.196-0.074-0.32-0.122-0.372-0.143c-0.167-0.038-0.279-0.182-0.336-0.431c-0.028-0.201-0.056-0.407-0.085-0.621
									c-0.091-0.702-0.165-1.438-0.223-2.206c-0.1-1.335-0.15-3.009-0.149-5.023c0.011-3.066,0.016-4.763,0.017-5.093
									c-0.008-0.278,0.214-0.434,0.668-0.468c0.212-0.041,0.539,0.093,0.98,0.402c0.461,0.738,1.051,1.948,1.773,3.629
									c0.69,1.608,1.3,2.822,1.831,3.643c0.064-1.689,0.169-4.243,0.319-7.661c0.019-0.255,0.192-0.394,0.52-0.419
									c0.113-0.008,0.247,0.001,0.401,0.027c0.205,0.035,0.327,0.058,0.366,0.068
									C224.226,391.684,224.315,391.766,224.362,391.889z"/>
								<path style="fill:#454F6B;" d="M232.935,401.847c0.091,0.196,0.142,0.369,0.153,0.52c0.019,0.252-0.072,0.48-0.272,0.685
									c-0.2,0.205-0.338,0.304-0.414,0.297c-0.626-0.067-1.053-0.535-1.283-1.405c-0.248-0.944-0.516-1.728-0.803-2.353
									c-0.425,0.07-0.851,0.14-1.276,0.21c-0.486,0.1-0.86,0.28-1.119,0.54c-0.109,0.401-0.24,1.107-0.392,2.119
									c-0.146,0.935-0.301,1.65-0.466,2.143c-0.084,0.234-0.293,0.313-0.628,0.237c-0.426-0.108-0.661-0.28-0.704-0.517
									c-0.074-0.476,0.016-1.128,0.271-1.958c0.309-0.948,0.468-1.618,0.476-2.011c0.004-0.114-0.088-0.234-0.274-0.359
									c-0.187-0.125-0.283-0.226-0.289-0.301c-0.005-0.063,0.019-0.131,0.07-0.205c0.052-0.073,0.18-0.14,0.384-0.2
									c0.204-0.06,0.315-0.134,0.334-0.225c0.18-0.646,0.451-1.845,0.813-3.594c0.304-1.517,0.59-2.685,0.859-3.503
									c0.062-0.182,0.213-0.282,0.452-0.3c0.176-0.013,0.338,0.031,0.485,0.135c0.375,0.275,0.636,0.712,0.782,1.309
									c0.114,0.511,0.222,1.022,0.324,1.534C231.272,397.57,232.111,399.97,232.935,401.847z M229.907,398.445
									c-0.073-0.463-0.194-0.98-0.363-1.55c-0.164-0.494-0.322-0.989-0.473-1.484c-0.299,1.074-0.548,2.144-0.747,3.209
									C228.522,398.568,229.05,398.509,229.907,398.445z"/>
								<path style="fill:#454F6B;" d="M242.303,390.22c-0.079,0.462-0.274,0.743-0.583,0.842c-0.804,0.263-2.207,0.634-4.21,1.114
									c-0.017,3.155,0.054,5.778,0.21,7.868c0.059,0.793,0.13,1.574,0.213,2.34c0.03,0.238,0.032,0.422,0.003,0.551
									c-0.048,0.206-0.167,0.31-0.357,0.312c-0.367,0.015-0.681-0.117-0.942-0.395s-0.419-0.598-0.471-0.962
									c-0.06-0.464-0.109-0.954-0.148-1.471c-0.062-0.831-0.105-2.151-0.126-3.961c-0.016-1.734-0.065-3.053-0.145-3.96
									c-0.342,0.001-0.812,0.068-1.41,0.201c-0.685,0.153-1.16,0.239-1.424,0.259c-0.617,0.046-1.133-0.081-1.549-0.382
									c-0.176-0.319-0.264-0.485-0.265-0.497c-0.007-0.089,0.03-0.188,0.111-0.296c0.393-0.17,1.208-0.359,2.446-0.567
									c1.087-0.196,1.891-0.461,2.41-0.794c0.452,0.118,0.962,0.156,1.528,0.114c0.567-0.043,1.103-0.152,1.609-0.33
									c0.15-0.024,0.528-0.141,1.133-0.351c0.445-0.147,0.82-0.213,1.125-0.198c0.227-0.017,0.329,0.07,0.305,0.262
									C242.107,389.893,242.286,389.993,242.303,390.22z"/>
								<path style="fill:#454F6B;" d="M246.445,392.246c-0.452,0.224-1.122,0.496-2.009,0.816c-0.888,0.32-1.558,0.592-2.01,0.816
									c-0.089,0.336-0.116,1.073-0.081,2.21c0.207,0.06,0.443,0.081,0.707,0.061c0.189-0.014,0.482-0.068,0.881-0.161
									c0.398-0.093,0.692-0.147,0.881-0.161c0.353-0.026,0.66,0.027,0.924,0.159c0.195,0.239,0.295,0.396,0.301,0.471
									c0.007,0.088-0.032,0.161-0.117,0.218c-0.024,0.015-0.106,0.109-0.244,0.284c-0.092,0.121-0.215,0.181-0.367,0.179
									c-0.26,0.083-0.742,0.157-1.446,0.222c-0.591,0.057-1.058,0.168-1.4,0.333c-0.17,0.95-0.234,1.696-0.193,2.237
									c0.027,0.366,0.099,0.651,0.216,0.858c0.623,0.371,1.663,0.471,3.119,0.298c0.1-0.008,0.204-0.063,0.31-0.166
									c0.106-0.103,0.197-0.157,0.273-0.163c0.347-0.102,0.6,0.145,0.759,0.741c0.053,0.199,0.032,0.387-0.062,0.565
									c-0.095,0.178-0.242,0.281-0.442,0.309c-1.52,0.164-2.852,0.144-3.994-0.061c-0.359-0.062-0.695-0.233-1.008-0.513
									c-0.313-0.281-0.501-0.608-0.568-0.984c-0.196-1.087-0.27-2.069-0.221-2.947c-0.371-0.213-0.546-0.434-0.525-0.663
									c0.004-0.114,0.094-0.226,0.269-0.334c0.175-0.108,0.272-0.213,0.29-0.316c0.018-0.102,0.023-0.705,0.017-1.806
									c-0.716-0.086-1.082-0.324-1.098-0.716c-0.015-0.366,0.184-0.672,0.596-0.918c0.391-0.194,0.781-0.388,1.172-0.582
									c0.448-0.274,1.017-0.532,1.708-0.774c0.605-0.21,1.211-0.414,1.816-0.611c0.062-0.017,0.137-0.029,0.225-0.036
									c0.34-0.026,0.747,0.077,1.22,0.307c0.016,0.05,0.055,0.142,0.116,0.276c0.06,0.135,0.093,0.234,0.098,0.297
									C246.566,392.092,246.528,392.177,246.445,392.246z"/>
							</g>
						</g>
					</g>
				</g>
				<g>
					<g>
						<path style="fill:#A34262;" d="M444.76,68.043c-9.72,28.239-32.918,25.09-43.416,5.958l4.01,29.217l43.416-5.958
							L444.76,68.043z"/>
						<path style="fill:#A34262;" d="M457.189,80.157l-1.495-7.865l-8.167,14.621l-19.946,17.118l-23.82-11.112l-11.803-11.881
							l0.679,7.977c1.74,20.434-1.847,40.97-10.41,59.604l-0.206,0.448l50.785-6.969l50.785-6.969l-0.319-0.376
							C470.005,119.115,461.019,100.304,457.189,80.157z"/>
						<path style="fill:#454F6B;" d="M462.221,76.016l-39.315-14.805l-0.974-7.1c-0.266-1.942-2.063-3.305-4.005-3.038
							c-3.134,0.43-6.043-1.67-6.657-4.731c-0.024-0.121-0.555-3.958-0.572-4.082c-0.447-3.258,1.839-6.272,5.097-6.719l1.64-0.225
							c3.258-0.447,6.272,1.84,6.719,5.098l0.218,1.587c0.089,0.651,0.689,1.106,1.34,1.017c0.651-0.089,1.106-0.689,1.017-1.34
							l-0.218-1.587c-0.318-2.314-1.564-4.275-3.308-5.566c-1.691-1.251-3.849-1.873-6.092-1.566l-1.64,0.225
							c-4.557,0.625-7.756,4.842-7.131,9.4c0.017,0.124,0.547,3.962,0.569,4.084c0.796,4.361,4.907,7.371,9.34,6.763
							c0.642-0.088,1.236,0.363,1.324,1.004l0.974,7.1l-33.872,24.849c-2.232,1.638-3.035,4.462-1.995,7.028
							c1.038,2.566,3.58,4.037,6.322,3.661l69.93-9.597c2.743-0.376,4.793-2.478,5.102-5.229
							C466.345,79.495,464.811,76.992,462.221,76.016z M463.671,81.981c-0.143,1.273-1.031,2.858-3.061,3.137l-69.93,9.597
							c-2.031,0.279-3.313-1.009-3.794-2.196c-0.481-1.188-0.456-3.005,1.198-4.217l33.923-24.887l39.374,14.828
							C463.301,78.965,463.814,80.708,463.671,81.981z"/>
						<path style="fill:#CC6164;" d="M483.591,135.129c-30.076-14.764-31.969-31.339-27.896-62.837l-10.935-4.25l-1.443,12.587
							c-0.914,7.972-7.114,14.311-15.063,15.402l-1.737,0.238l-1.737,0.238c-7.949,1.091-15.628-3.344-18.656-10.774l-4.781-11.732
							l-9.386,7.038c12.408,29.235,15.05,45.709-9.937,68.028l11.262,61.947c2.608,14.347,4.113,28.872,4.502,43.449l0.313,11.755
							l50.785-6.969l50.785-6.969l-2.865-11.404c-3.553-14.142-6.016-28.536-7.369-43.055L483.591,135.129z"/>
					</g>
					<g>
						<g>
							<path style="fill:#ECA85E;" d="M376.914,149.482c6.874,6.016,17.385,7.483,25.643,3.578
								c5.636-2.665,10.052-7.529,12.91-13.07c1.863-3.611,3.095-7.502,3.909-11.49c-15.17-0.736-33.873-0.795-50.408,1.6
								C368.562,137.302,371.466,144.713,376.914,149.482z"/>
							<path style="fill:#FFFFFF;" d="M373.168,153.064c8.327,7.288,21.06,9.065,31.064,4.334
								c6.827-3.229,12.177-9.121,15.639-15.832c2.081-4.033,3.511-8.357,4.496-12.793c-1.613-0.098-3.278-0.189-4.99-0.272
								c-0.814,3.988-2.046,7.879-3.909,11.49c-2.858,5.54-7.275,10.404-12.91,13.07c-8.258,3.905-18.77,2.439-25.643-3.578
								c-5.448-4.768-8.352-12.18-7.945-19.383c-0.881,0.128-1.759,0.26-2.627,0.402c-0.964,0.158-1.915,0.363-2.857,0.595
								C363.456,139.334,366.949,147.62,373.168,153.064z"/>
							<path style="fill:#F4D071;" d="M486.336,198.613c0,0-10.129-30.38-25.706-53.344c-6.194-9.132-16.192-14.954-27.19-15.853
								c-2.76-0.226-5.81-0.447-9.073-0.645c-0.985,4.437-2.415,8.76-4.496,12.793c-3.462,6.711-8.812,12.604-15.639,15.832
								c-10.003,4.731-22.737,2.954-31.064-4.334c-6.219-5.443-9.712-13.73-9.683-21.968c-8.25,2.035-15.567,6.887-20.633,13.785
								c-8.928,12.154-23.794,32.908-36.451,53.055c6.346,7.82,15.049,13.702,24.672,16.674c-0.361,6.872-1.307,21.362-1.307,21.362
								l123.303-0.108c0,0-2.774-10.174-2.774-21.221C461.867,211.487,470.985,209.032,486.336,198.613z"/>
						</g>
						<path style="fill:#ECA85E;" d="M327.819,200.482c3.534,6.23,1.447,10.12-1.394,12.428c1.521,0.639,3.071,1.212,4.648,1.699
							c0.691-22.322,8.844-54.147,13.578-63.352C331.238,168.616,320.981,188.426,327.819,200.482z"/>
						<path style="fill:#ECA85E;" d="M445.911,136.265c-18.937-0.526-21.444,34.191-11.774,83.901c3.884,0.789,7.04,0,7.04,0
							c-0.184,5.008,0.873,11.069,1.921,15.706l9.971-0.009c0,0-2.774-10.174-2.774-21.221c-5.173,1.841-10.959,2.104-10.959,2.104
							C435.128,178.347,427.501,146.523,445.911,136.265z"/>
					</g>
					<g>
						<g>
							<path style="fill:#A34262;" d="M570.555,163.298c-5.776,5.055-14.608,6.287-21.547,3.006
								c-4.735-2.239-8.447-6.327-10.848-10.982c-1.565-3.034-2.601-6.303-3.285-9.654c12.747-0.618,28.462-0.668,42.356,1.344
								C577.573,153.064,575.133,159.292,570.555,163.298z"/>
							<path style="fill:#E8916A;" d="M573.703,166.308c-6.996,6.124-17.696,7.617-26.101,3.641
								c-5.736-2.713-10.232-7.664-13.141-13.303c-1.748-3.389-2.95-7.022-3.778-10.75c1.356-0.082,2.755-0.159,4.193-0.229
								c0.684,3.351,1.72,6.62,3.285,9.654c2.401,4.655,6.113,8.742,10.848,10.982c6.939,3.281,15.771,2.049,21.547-3.006
								c4.578-4.007,7.018-10.234,6.676-16.286c0.74,0.107,1.478,0.218,2.207,0.338c0.81,0.132,1.609,0.305,2.4,0.5
								C581.863,154.772,578.928,161.734,573.703,166.308z"/>
							<path style="fill:#CC6164;" d="M478.613,204.581c0,0,8.511-25.527,21.599-44.822c5.205-7.673,13.606-12.565,22.847-13.32
								c2.319-0.189,4.882-0.376,7.624-0.542c0.827,3.728,2.029,7.361,3.778,10.75c2.909,5.639,7.405,10.59,13.141,13.303
								c8.405,3.975,19.105,2.482,26.101-3.641c5.225-4.574,8.161-11.536,8.136-18.459c6.932,1.71,13.08,5.787,17.337,11.583
								c7.501,10.213,19.992,27.651,30.628,44.579c-5.332,6.571-12.645,11.513-20.731,14.01c0.303,5.774,1.099,17.949,1.099,17.949
								l-103.605-0.09c0,0,2.331-8.549,2.331-17.831C499.173,215.398,491.512,213.335,478.613,204.581z"/>
						</g>
						<path style="fill:#A34262;" d="M611.807,206.152c-2.969,5.235-1.215,8.503,1.171,10.442c-1.279,0.537-2.58,1.018-3.906,1.428
							c-0.581-18.756-7.431-45.497-11.409-53.232C608.934,179.376,617.553,196.021,611.807,206.152z"/>
						<path style="fill:#A34262;" d="M512.58,152.193c15.912-0.442,18.019,28.729,9.893,70.497c-3.263,0.663-5.915,0-5.915,0
							c0.154,4.208-0.734,9.301-1.614,13.197l-8.378-0.007c0,0,2.331-8.549,2.331-17.831c4.346,1.547,9.208,1.768,9.208,1.768
							C521.641,187.553,528.049,160.812,512.58,152.193z"/>
					</g>
					<g>
						<g>
							
								<rect x="548.001" y="235.971" transform="matrix(-1 -1.224647e-16 1.224647e-16 -1 1171.8837 692.7156)" style="fill:#BD6C67;" width="75.881" height="220.774"/>
							<rect x="292.745" y="235.971" style="fill:#DF8D6D;" width="255.256" height="220.774"/>
							<path style="opacity:0.3;fill:#422C4F;" d="M292.745,456.745h255.256h75.881v-23.276h-5.962
								c-27.308,0-49.446-22.138-49.446-49.446v-58.388c0-17.431,14.13-31.561,31.561-31.561h23.846v-58.101h-75.881H292.745v60.205
								h169.254c17.431,0,31.561,14.13,31.561,31.561v58.125c0,27.308-22.138,49.446-49.446,49.446H292.745V456.745z"/>
							<polygon style="fill:#EF9C81;" points="518.55,284.953 263.293,284.953 292.745,235.971 548.001,235.971 							"/>
							<polygon style="fill:#DF8D6D;" points="652.638,284.953 576.757,284.953 548.001,235.971 623.882,235.971 							"/>
						</g>
						<g>
							<path style="fill:#FFFFFF;" d="M346.576,227.475c-8.256,0-15.857,4.839-19.025,12.464c-3.475,8.363-5.041,17.639-5.47,26.741
								c-0.658,13.968,1.091,27.935,1.198,41.918c0.107,13.983-1.576,28.427-8.486,40.583c7.687,7.391,19.838,8.283,30.502,8.341
								c10.664,0.058,21.777-0.743,31.543,3.539c3.911-21.106-4.451-42.796-5.382-64.241c-0.979-22.554,7.832-44.962,23.871-60.849
								h9.205l0,0c-4.089-5.354-10.44-8.496-17.177-8.496H346.576z"/>
							<g>
								<path style="fill:#F6DCC5;" d="M339.098,329.891c-3.997,0-9.229-0.801-13.146-4.272c-0.217-0.192-0.238-0.525-0.045-0.742
									c0.194-0.219,0.526-0.239,0.743-0.045c3.968,3.515,9.449,4.123,13.336,3.993c3.185-0.097,6.401-0.655,9.51-1.196
									c1.617-0.28,3.289-0.571,4.946-0.795c6.159-0.835,10.831-0.438,14.702,1.254c0.266,0.116,0.388,0.426,0.271,0.693
									c-0.116,0.265-0.425,0.388-0.692,0.271c-3.687-1.611-8.18-1.984-14.139-1.176c-1.637,0.222-3.299,0.511-4.907,0.79
									c-3.146,0.547-6.398,1.113-9.658,1.211C339.719,329.887,339.412,329.891,339.098,329.891z"/>
							</g>
							<g>
								<g>
									<path style="fill:#F6DCC5;" d="M338.191,320.287c2.505-5.141,3.924-11.809,4.106-18.911
										c0.223-7.111-0.751-14.64-1.847-21.98c-1.067-7.331-1.919-14.672-0.911-21.448c0.978-6.752,3.757-12.873,7.898-16.845
										c-1.151,0.841-2.278,1.827-3.331,2.966c-1.034,1.153-1.991,2.449-2.845,3.863c-1.708,2.832-2.937,6.142-3.701,9.658
										c-1.52,7.095-0.836,14.814,0.236,22.185c1.104,7.393,2.265,14.672,2.491,21.607
										C340.543,308.297,339.855,314.819,338.191,320.287z"/>
								</g>
								<g>
									<path style="fill:#F6DCC5;" d="M355.902,312.294c0.632-4.303,1.006-9.341,0.921-14.725
										c-0.078-5.382-0.617-11.106-1.636-16.746c-1.017-5.648-2.539-11.097-2.814-16.335c-0.318-5.207,0.69-10.214,3.075-13.885
										c-1.445,1.627-2.642,3.738-3.418,6.133c-0.784,2.394-1.169,5.051-1.19,7.788c-0.056,5.499,1.346,11.137,2.335,16.661
										C355.223,292.286,355.849,303.596,355.902,312.294z"/>
								</g>
							</g>
						</g>
						<g>
							<path style="fill:#454F6B;" d="M563.565,235.971c13.913,8.08,17.773,27.511,17.306,43.593
								c-0.141,4.835-0.808,9.665-0.506,14.492c0.303,4.827,1.706,9.801,5.088,13.259c3.171,3.241,7.774,4.795,12.303,5.013
								c4.933,0.237,9.831-0.974,14.548-2.384c5.157-1.542,10.242-3.321,15.225-5.356c6.019-2.458,12.85-4.444,16.984-9.889
								c1.396-1.838,2.327-4.024,2.52-6.323c0.612-7.302-5.893-11.003-11.956-11.45c-4.621-0.341-9.207,0.792-13.817,1.257
								s-9.619,0.144-13.3-2.669c-3.068-2.344-4.756-6.096-5.635-9.855c-0.88-3.759-1.07-7.647-1.805-11.438
								c-1.58-8.142-5.766-15.749-11.747-21.488c-1.636-1.57-3.81-2.458-6.077-2.458h-10.954
								C568.092,230.275,564.829,232.548,563.565,235.971L563.565,235.971z"/>
							<g>
								<path style="fill:#FFFFFF;" d="M584.707,248.583c4.237-2.169,9.341-2.54,13.867-1.086c-0.917-2.375-2.057-4.664-3.398-6.829
									c-3.977-0.778-8.219-0.234-11.83,1.615c-3.262,1.67-5.94,4.392-7.68,7.613c0.772,1.652,1.448,3.372,2.032,5.143
									C579.426,252.327,581.843,250.049,584.707,248.583z"/>
								<path style="fill:#FFFFFF;" d="M588.177,261.025c4.02-2.058,8.817-2.481,13.165-1.28c-0.24-1.847-0.468-3.697-0.822-5.524
									c-0.044-0.227-0.098-0.452-0.146-0.678c-4.449-1.339-9.417-0.939-13.558,1.181c-3.061,1.567-5.619,4.054-7.362,7.016
									c0.46,2.28,0.804,4.594,1.039,6.907C582.232,265.421,584.912,262.697,588.177,261.025z"/>
							</g>
						</g>
						<g>
							
								<rect x="334.559" y="373.473" transform="matrix(0.9971 0.0763 -0.0763 0.9971 31.6625 -28.6064)" style="fill:#FBEED1;" width="111.177" height="53.06"/>
							<g>
								<path style="fill:#454F6B;" d="M360.997,399.432c-0.263,0.496-0.514,0.993-0.754,1.49c-0.313,0.581-0.64,1.038-0.979,1.371
									c-0.758,0.816-1.515,1.622-2.27,2.416c-0.903,0.962-1.705,1.618-2.404,1.969c-0.244,0.25-0.51,0.51-0.8,0.78
									c-0.29,0.268-0.569,0.394-0.837,0.373c-0.134-0.01-0.287-0.056-0.46-0.136c-0.174-0.08-0.362-0.173-0.567-0.279
									c-0.206-0.106-0.345-0.262-0.418-0.469c0.005-0.941,0.048-1.947,0.13-3.017c0.084-1.092,0.253-2.716,0.507-4.872
									c0.255-2.155,0.424-3.779,0.508-4.871c0.111-1.449,0.156-2.78,0.137-3.992c-0.021-0.024-0.246-0.299-0.677-0.826
									c-0.268-0.311-0.392-0.59-0.373-0.836c0.009-0.111,0.039-0.221,0.092-0.329c0.132-0.26,0.389-0.396,0.771-0.412
									c0.293-0.022,0.585-0.034,0.877-0.034c1.842,0.545,3.723,1.743,5.645,3.594c0.501,0.487,0.9,0.988,1.196,1.504
									c0.949,1.664,1.371,3.188,1.265,4.57C361.533,398.14,361.336,398.808,360.997,399.432z M358.863,395.67
									c-0.093-1.42-1.191-2.748-3.293-3.986c-0.441,3.711-0.787,7.654-1.04,11.828c2.711-2.326,4.154-4.627,4.328-6.901
									C358.882,396.3,358.883,395.986,358.863,395.67z"/>
								<path style="fill:#454F6B;" d="M374.36,400.623c-1.543,2.864-3.538,4.483-5.988,4.856c-0.296,0.045-0.588,0.056-0.878,0.034
									c-1.27-0.097-2.499-0.886-3.686-2.368c-0.798-1.003-1.14-2.25-1.026-3.744c0.126-1.65,0.752-3.385,1.878-5.204
									c0.485-0.77,1.051-1.421,1.698-1.956c0.743-0.638,1.427-0.934,2.052-0.886c0.356,0.027,0.68,0.186,0.972,0.478
									c0.292,0.291,1.1,0.712,2.426,1.262c1.043,0.439,1.755,1.099,2.136,1.98c0.665,1.554,0.958,2.865,0.876,3.935
									C374.773,399.612,374.619,400.15,374.36,400.623z M371.843,398.345c-0.032-1.639-0.392-2.642-1.081-3.009
									c-0.108-0.053-0.207-0.083-0.296-0.09c-0.267-0.021-0.619,0.177-1.054,0.592c-0.486,0.478-0.854,0.753-1.106,0.823
									c-0.161,0.055-0.38-0.029-0.654-0.252c-0.275-0.223-0.457-0.338-0.546-0.345c-0.067-0.005-0.124,0.013-0.172,0.054
									c-0.832,0.609-1.301,1.616-1.408,3.02c-0.073,0.959,0.087,1.789,0.482,2.492c0.554,0.962,1.043,1.459,1.466,1.491
									c0.981,0.075,1.975-0.465,2.983-1.621C371.416,400.409,371.877,399.357,371.843,398.345z"/>
								<path style="fill:#454F6B;" d="M391.007,388.78c-0.542,2.964-1.071,5.939-1.592,8.926c-0.652,3.538-1.069,6.499-1.252,8.885
									c-0.06,0.781-0.097,1.551-0.11,2.312c-0.006,0.358-0.158,0.661-0.456,0.907c-0.3,0.246-0.627,0.355-0.984,0.328
									c-0.691-0.053-1.235-0.565-1.631-1.537c-1.214-2.896-2.652-7.4-4.314-13.515c-0.035-0.137-0.085-0.208-0.152-0.213
									c-0.156-0.012-0.269,0.137-0.337,0.445c-0.623,3.159-1.069,6.499-1.339,10.021c-0.13,1.694-0.217,3.425-0.263,5.194
									c-0.028,0.648-0.251,1.079-0.671,1.293c-0.168,0.144-0.341,0.209-0.519,0.196c-0.157-0.012-0.352-0.094-0.587-0.247
									c-0.323-0.182-0.527-0.299-0.613-0.35c-0.283-0.112-0.44-0.392-0.473-0.843c0.005-0.358,0.01-0.728,0.018-1.109
									c0.028-1.254,0.095-2.56,0.199-3.92c0.181-2.362,0.54-5.307,1.079-8.83c0.836-5.363,1.299-8.332,1.388-8.908
									c0.059-0.488,0.491-0.702,1.293-0.641c0.383-0.015,0.918,0.306,1.608,0.964c0.609,1.415,1.321,3.689,2.136,6.823
									c0.779,2.998,1.523,5.285,2.232,6.865c0.562-2.939,1.428-7.38,2.601-13.323c0.101-0.441,0.441-0.639,1.021-0.595
									c0.2,0.015,0.432,0.067,0.694,0.154c0.35,0.117,0.557,0.188,0.623,0.216C390.823,388.385,390.957,388.552,391.007,388.78z"
									/>
								<path style="fill:#454F6B;" d="M403.354,408.493c0.106,0.367,0.15,0.684,0.13,0.951c-0.034,0.446-0.254,0.822-0.659,1.127
									c-0.405,0.306-0.673,0.441-0.805,0.41c-1.078-0.284-1.701-1.217-1.871-2.8c-0.183-1.718-0.442-3.162-0.778-4.332
									c-0.763,0.01-1.527,0.018-2.289,0.027c-0.878,0.045-1.579,0.26-2.102,0.646c-0.298,0.673-0.715,1.874-1.251,3.604
									c-0.504,1.598-0.967,2.807-1.388,3.627c-0.209,0.388-0.597,0.47-1.163,0.248c-0.717-0.302-1.082-0.667-1.093-1.093
									c-0.002-0.852,0.33-1.97,0.997-3.354c0.793-1.576,1.25-2.707,1.37-3.393c0.037-0.199-0.091-0.433-0.384-0.702
									c-0.293-0.269-0.435-0.47-0.425-0.604c0.009-0.111,0.068-0.225,0.177-0.339c0.11-0.115,0.352-0.197,0.726-0.247
									c0.374-0.05,0.588-0.151,0.645-0.304c0.487-1.083,1.281-3.108,2.382-6.073c0.937-2.574,1.749-4.542,2.437-5.902
									c0.157-0.301,0.448-0.436,0.871-0.404c0.312,0.024,0.583,0.145,0.813,0.365c0.583,0.582,0.923,1.415,1.02,2.5
									c0.064,0.924,0.116,1.847,0.158,2.77C401.584,400.565,402.412,404.99,403.354,408.493z M398.961,401.733
									c-0.004-0.83-0.079-1.766-0.222-2.809c-0.156-0.908-0.299-1.816-0.431-2.723c-0.811,1.799-1.532,3.605-2.163,5.417
									C396.505,401.578,397.445,401.617,398.961,401.733z"/>
								<path style="fill:#454F6B;" d="M422.849,390.645c-0.262,0.787-0.677,1.227-1.244,1.317
									c-1.477,0.246-4.032,0.521-7.665,0.826c-0.871,5.516-1.447,10.126-1.73,13.826c-0.107,1.405-0.191,2.789-0.25,4.152
									c-0.011,0.425-0.057,0.747-0.141,0.965c-0.139,0.348-0.375,0.498-0.707,0.45c-0.645-0.072-1.16-0.386-1.543-0.942
									c-0.383-0.556-0.573-1.159-0.568-1.809c0.018-0.828,0.063-1.699,0.133-2.614c0.113-1.471,0.391-3.792,0.836-6.966
									c0.434-3.038,0.701-5.361,0.802-6.968c-0.599-0.09-1.439-0.098-2.521-0.025c-1.24,0.085-2.094,0.109-2.561,0.073
									c-1.092-0.084-1.962-0.443-2.608-1.081c-0.222-0.605-0.333-0.918-0.331-0.941c0.012-0.157,0.103-0.32,0.272-0.488
									c0.733-0.192,2.21-0.305,4.432-0.339c1.954-0.054,3.431-0.302,4.43-0.747c0.759,0.328,1.641,0.53,2.644,0.606
									c1.004,0.077,1.971,0.028,2.904-0.148c0.27-0.001,0.961-0.105,2.076-0.312c0.818-0.139,1.492-0.155,2.021-0.047
									c0.402,0.031,0.556,0.211,0.464,0.54C422.594,390.02,422.88,390.243,422.849,390.645z"/>
								<path style="fill:#454F6B;" d="M429.557,395.296c-0.851,0.272-2.095,0.569-3.734,0.891c-1.64,0.324-2.885,0.62-3.735,0.891
									c-0.245,0.565-0.49,1.846-0.732,3.846c0.346,0.161,0.753,0.259,1.222,0.295c0.335,0.026,0.862,0.01,1.585-0.047
									c0.722-0.056,1.25-0.073,1.584-0.047c0.625,0.048,1.149,0.223,1.575,0.525c0.277,0.47,0.411,0.772,0.401,0.905
									c-0.012,0.156-0.099,0.273-0.262,0.35c-0.046,0.019-0.214,0.163-0.504,0.433c-0.194,0.187-0.424,0.259-0.689,0.216
									c-0.477,0.076-1.34,0.077-2.59,0.003c-1.05-0.058-1.896,0.013-2.539,0.21c-0.55,1.617-0.861,2.905-0.935,3.864
									c-0.049,0.647,0,1.166,0.15,1.559c0.991,0.816,2.784,1.267,5.379,1.353c0.178,0.014,0.374-0.056,0.587-0.207
									c0.213-0.152,0.387-0.223,0.521-0.213c0.634-0.086,1.011,0.414,1.13,1.499c0.039,0.362-0.048,0.686-0.26,0.973
									c-0.213,0.286-0.498,0.427-0.857,0.422c-2.704-0.118-5.029-0.509-6.973-1.173c-0.613-0.204-1.154-0.594-1.626-1.167
									c-0.473-0.574-0.715-1.199-0.731-1.873c-0.053-1.954,0.08-3.694,0.399-5.216c-0.592-0.471-0.839-0.905-0.742-1.301
									c0.037-0.199,0.224-0.37,0.561-0.512c0.336-0.142,0.533-0.301,0.591-0.476c0.059-0.174,0.229-1.227,0.511-3.155
									c-1.23-0.341-1.807-0.856-1.732-1.545c0.071-0.645,0.501-1.127,1.288-1.449c0.735-0.235,1.471-0.47,2.207-0.706
									c0.857-0.359,1.922-0.66,3.196-0.898c1.114-0.206,2.229-0.401,3.341-0.586c0.113-0.013,0.247-0.014,0.404-0.002
									c0.601,0.046,1.286,0.334,2.053,0.863c0.015,0.091,0.058,0.263,0.129,0.514c0.07,0.252,0.101,0.434,0.093,0.545
									C429.81,395.057,429.72,395.196,429.557,395.296z"/>
							</g>
						</g>
					</g>
				</g>
			</g>
			<g>
				<g>
					<g>
						<g>
							<path style="fill:#984058;" d="M462.634,238.941c-38.816,75.675-32.504,202.446-32.504,202.446H465.9
								c0-72.591,18.6-143.604,30.341-163.593c-10.878,51.024-4.566,163.593-4.566,163.593h36.295
								c-5.26-117.303,23.7-166.604,15.795-202.446H462.634z"/>
							<path style="fill:#422C4F;" d="M478.387,271.494c2.523,4.538,7.307,7.352,12.499,7.352
								c-9.126,14.804-14.314,31.699-15.087,49.072c-0.292,6.56-0.349,12.684-0.308,17.768c6.298-32.124,14.497-57.245,20.75-67.892
								l-20.347-10.783L478.387,271.494z"/>
						</g>
						<g>
							<g>
								<path style="fill:#B55975;" d="M523.244,437.529c-0.271,0-0.501-0.208-0.523-0.484
									c-4.747-58.787,3.926-108.943,10.257-145.565c3.576-20.684,6.402-37.023,5.924-48.929c-0.011-0.29,0.215-0.534,0.505-0.547
									c0.304,0.004,0.536,0.215,0.548,0.505c0.481,12.017-2.352,28.404-5.939,49.151c-6.323,36.567-14.981,86.646-10.246,145.301
									c0.024,0.29-0.192,0.543-0.482,0.566C523.273,437.528,523.258,437.529,523.244,437.529z"/>
							</g>
							<g>
								<path style="fill:#B55975;" d="M535.404,269.261c-0.134,0-0.267-0.05-0.369-0.151c-3.121-3.075-5.343-7.506-6.424-12.816
									c-0.962-4.716-0.98-9.577-0.999-14.28c-0.001-0.291,0.233-0.527,0.524-0.528c0.001,0,0.001,0,0.002,0
									c0.29,0,0.525,0.234,0.526,0.524c0.018,4.651,0.037,9.46,0.978,14.074c1.04,5.104,3.159,9.348,6.13,12.275
									c0.208,0.204,0.21,0.537,0.006,0.744C535.676,269.208,535.54,269.261,535.404,269.261z"/>
							</g>
							<g>
								<path style="fill:#B55975;" d="M493.881,274.551l-0.623-0.376c-1.781-1.074-2.999-3.218-3.257-5.733
									c-0.225-2.207,0.227-4.364,0.665-6.451l3.439-16.387c0.061-0.285,0.343-0.469,0.623-0.407
									c0.285,0.06,0.466,0.338,0.407,0.623l-3.439,16.387c-0.421,2.008-0.857,4.084-0.648,6.128
									c0.193,1.878,0.978,3.505,2.145,4.5l6.211-27.24c0.065-0.282,0.337-0.464,0.63-0.396c0.283,0.065,0.46,0.346,0.396,0.63
									L493.881,274.551z"/>
							</g>
							<g>
								<path style="fill:#B55975;" d="M460.089,437.529L460.089,437.529c-0.291,0-0.526-0.235-0.526-0.526
									c0.014-62.233,8.176-114.683,24.258-155.894c0.106-0.271,0.411-0.406,0.681-0.299c0.271,0.106,0.405,0.411,0.299,0.681
									c-16.034,41.088-24.171,93.41-24.186,155.512C460.615,437.294,460.38,437.529,460.089,437.529z"/>
							</g>
						</g>
					</g>
					<g>
						<path style="fill:#7DD3E9;" d="M543.421,208.818l-5.982-69.631l-7.769-7.101h-26.38c0,0-10.563,12.975-20.328,0h-27.182
							l5.105,78.78c0.185,2.849-0.292,5.702-1.393,8.336l0,0c-2.327,5.568-1.794,11.921,1.428,17.023l1.714,2.716h81.131
							l2.382-5.058c2.628-5.581,2.453-12.077-0.472-17.508h0C544.416,214.037,543.648,211.465,543.421,208.818z"/>
						<g>
							<path style="fill:#5FA5CC;" d="M512.035,235.835c8.85-4.041,15.216-12.091,17.109-21.634l10.284-51.861l-26.703-10
								l-19.599,46.55l-32.37,9.989l0.129,1.986c0.185,2.849-0.292,5.702-1.393,8.336v0c-2.327,5.568-1.794,11.92,1.428,17.023
								l1.714,2.716h42.598L512.035,235.835z"/>
							<path style="fill:#422C4F;" d="M462.634,238.941c-3.605,7.028-6.819,14.498-9.687,22.265l31.363-6.294l5.26-8.821
								l15.661-7.15H462.634z"/>
						</g>
					</g>
					<g>
						<path style="fill:#454F6B;" d="M517.056,441.387h-19.2l-6.718,9.213c-1.619,2.221-3.881,3.891-6.48,4.784l-4.942,1.699
							c-3.369,1.158-6.072,3.582-7.621,6.66h51.045C522.379,449.581,517.056,441.387,517.056,441.387z"/>
						<path style="fill:#422C4F;" d="M523.139,463.743h-13.316v4.34h13.413C523.26,466.573,523.214,465.139,523.139,463.743z"/>
						<path style="fill:#422C4F;" d="M472.094,463.743c-0.674,1.34-1.133,2.802-1.328,4.34h26.851l12.206-4.34H472.094z"/>
					</g>
					<g>
						<path style="fill:#454F6B;" d="M453.376,441.387h-19.2l-6.718,9.213c-1.619,2.221-3.881,3.891-6.48,4.784l-4.942,1.699
							c-3.369,1.158-6.072,3.582-7.621,6.66h51.045C458.7,449.581,453.376,441.387,453.376,441.387z"/>
						<path style="fill:#422C4F;" d="M459.46,463.743h-13.316v4.34h13.414C459.581,466.573,459.534,465.139,459.46,463.743z"/>
						<path style="fill:#422C4F;" d="M408.415,463.743c-0.674,1.34-1.133,2.802-1.328,4.34h26.851l12.206-4.34H408.415z"/>
					</g>
					<g>
						<path style="fill:#7DD3E9;" d="M455.781,132.086L455.781,132.086c-5.099,0-9.669,3.146-11.489,7.909l-7.498,19.62h20.771
							L455.781,132.086z"/>
						<polygon style="fill:#5FA5CC;" points="457.564,159.615 456.394,141.557 450.295,159.615 						"/>
					</g>
					<g>
						<path style="fill:#F0BF9C;" d="M503.29,132.086l-4.25-21.859l-16.077,13.092v8.767
							C492.727,145.061,503.29,132.086,503.29,132.086z"/>
						<path style="fill:#E78882;" d="M499.04,110.227c-0.789,10.111-8.066,19.492-16.077,18.089v-4.997L499.04,110.227z"/>
						<g>
							<g>
								<path style="fill:#F0BF9C;" d="M462.775,93.892l1.304,11.117c0.671,5.72,3.121,11.086,7.005,15.339v0
									c3.202,3.507,7.841,5.346,12.577,4.985l0,0c4.04-0.308,7.798-2.192,10.462-5.245l1.629-1.866
									c3.845-4.407,6.185-9.925,6.68-15.752l0.784-9.225c1.008-11.862-8.348-22.047-20.253-22.047l0,0
									C470.799,71.199,461.359,81.811,462.775,93.892z"/>
								<path style="fill:#8C404C;" d="M500.415,108.149L500.415,108.149c-1.026-2.841-1.551-5.838-1.551-8.858v-3.15l0,0
									c-4.427-3.209-7.13-8.278-7.328-13.742l-0.036-0.987c-6.782,6.957-17.374,11.121-27.068,10.49
									c-4.866-0.317-10.294-2.136-11.242-7.707c-0.26-1.528-0.088-3.106,0.385-4.583c1.266-3.951,4.291-6.808,7.362-9.419
									c4.748-4.039,9.975-7.818,16.037-9.267c6.062-1.45,13.142-0.102,17.098,4.715c3.567-2.784,9.404-2.141,13.075,0.504
									c3.671,2.645,5.729,7.098,6.345,11.581c0.616,4.483-0.058,9.039-0.94,13.477c-0.723,3.642-1.605,7.306-3.373,10.571
									C507.411,105.04,504.129,108.149,500.415,108.149z"/>
								<g>
									<path style="fill:#F0BF9C;" d="M504.132,99.269c1.371-1.329,3.591-1.987,5.229-1.006c1.359,0.814,1.951,2.501,2.047,4.083
										c0.214,3.525-1.677,7.098-4.712,8.903c-1.474,0.876-3.449,1.311-4.847,0.319c-1.051-0.746-1.493-2.131-1.432-3.419
										c0.073-1.549,0.707-3.242,1.242-4.692C502.214,101.948,502.964,100.401,504.132,99.269z"/>
									<path style="fill:#E78882;" d="M509.095,103.612c-0.212-0.531-0.428-1.07-0.78-1.52c-0.352-0.45-0.866-0.808-1.436-0.838
										c-0.544-0.029-1.071,0.243-1.454,0.629c-0.383,0.387-0.639,0.879-0.858,1.378c-0.573,1.306-0.924,2.708-1.035,4.13
										c-0.053,0.682,0.029,1.511,0.637,1.825c0.64,0.33,1.396-0.146,1.898-0.663c0.7-0.721,1.288-1.642,1.27-2.647
										c-0.018-1.005-0.856-2.028-1.857-1.943c-0.002-0.744,0.815-1.635,1.553-1.728
										C507.77,102.142,508.913,102.891,509.095,103.612z"/>
								</g>
							</g>
							<path style="fill:#8C404C;" d="M491.056,96.821h-11.403c0.286-1.322,1.574-2.4,2.857-2.828
								c1.283-0.429,2.697-0.312,3.995,0.07C488.108,94.533,489.86,95.654,491.056,96.821z"/>
							<path style="fill:#422C4F;" d="M483.79,104.362L483.79,104.362c-0.726,0-1.315-0.589-1.315-1.315v-1.442
								c0-0.726,0.589-1.315,1.315-1.315l0,0c0.726,0,1.315,0.589,1.315,1.315v1.442
								C485.105,103.773,484.516,104.362,483.79,104.362z"/>
							<path style="fill:#8C404C;" d="M464.183,96.821h7.048c-0.177-1.322-0.973-2.4-1.766-2.828
								c-0.793-0.428-1.667-0.312-2.469,0.07C466.005,94.533,464.922,95.654,464.183,96.821z"/>
							<path style="fill:#422C4F;" d="M468.373,104.362L468.373,104.362c0.502,0,0.909-0.407,0.909-0.909v-2.255
								c0-0.502-0.407-0.909-0.909-0.909l0,0c-0.502,0-0.909,0.407-0.909,0.909v2.255
								C467.464,103.955,467.871,104.362,468.373,104.362z"/>
							<path style="fill:#E78882;" d="M477.809,109.369h-8.325c0.548,0.887,1.643,1.626,2.935,1.707
								c0.915,0.057,1.832-0.146,2.647-0.464C475.883,110.294,477.086,109.795,477.809,109.369z"/>
							<path style="fill:#FFFFFF;" d="M471.638,115.905c4.899-0.083,9.798-0.167,14.697-0.25c-1.682,2.296-4.482,3.951-7.328,4.004
								C476.162,119.712,473.405,118.137,471.638,115.905z"/>
						</g>
					</g>
				</g>
				<g>
					<g>
						<rect x="340.882" y="159.615" style="fill:#DF8D6D;" width="66.63" height="91.528"/>
						<rect x="407.512" y="159.615" style="fill:#BD6C67;" width="74.963" height="91.528"/>
					</g>
					<g>
						
							<rect x="346.576" y="183.27" transform="matrix(0.9902 -0.1398 0.1398 0.9902 -23.6975 54.01)" style="fill:#FBEED1;" width="51.841" height="24.741"/>
						<g>
							<path style="fill:#454F6B;" d="M359.164,198.303c-0.07,0.252-0.134,0.504-0.194,0.754c-0.084,0.296-0.187,0.537-0.309,0.723
								c-0.263,0.448-0.527,0.891-0.792,1.328c-0.315,0.529-0.614,0.908-0.897,1.137c-0.086,0.138-0.181,0.283-0.286,0.435
								c-0.105,0.151-0.219,0.236-0.344,0.254c-0.062,0.009-0.136,0.003-0.223-0.016c-0.087-0.019-0.182-0.043-0.286-0.07
								c-0.104-0.027-0.183-0.085-0.237-0.172c-0.092-0.429-0.173-0.892-0.243-1.387c-0.071-0.506-0.157-1.262-0.257-2.27
								c-0.1-1.007-0.186-1.764-0.257-2.269c-0.095-0.671-0.208-1.282-0.338-1.832c-0.012-0.009-0.142-0.111-0.391-0.308
								c-0.153-0.115-0.238-0.229-0.254-0.343c-0.007-0.051-0.004-0.104,0.009-0.159c0.034-0.131,0.138-0.219,0.31-0.265
								c0.131-0.039,0.263-0.074,0.396-0.103c0.893,0.063,1.87,0.421,2.931,1.071c0.277,0.172,0.509,0.36,0.696,0.565
								c0.599,0.663,0.944,1.314,1.034,1.954C359.279,197.661,359.256,197.985,359.164,198.303z M357.815,196.804
								c-0.185-0.637-0.818-1.132-1.899-1.485c0.171,1.734,0.409,3.565,0.712,5.49c1.001-1.331,1.428-2.523,1.279-3.576
								C357.887,197.089,357.856,196.946,357.815,196.804z"/>
							<path style="fill:#454F6B;" d="M365.369,197.506c-0.415,1.459-1.162,2.396-2.24,2.812c-0.13,0.05-0.262,0.085-0.396,0.104
								c-0.588,0.083-1.227-0.153-1.916-0.709c-0.464-0.377-0.745-0.911-0.842-1.602c-0.108-0.764,0.003-1.617,0.334-2.558
								c0.143-0.399,0.336-0.753,0.577-1.061c0.275-0.365,0.557-0.568,0.846-0.609c0.165-0.023,0.329,0.017,0.491,0.12
								c0.162,0.103,0.572,0.214,1.231,0.331c0.519,0.095,0.909,0.324,1.171,0.688c0.459,0.641,0.723,1.208,0.793,1.704
								C365.456,197.004,365.44,197.265,365.369,197.506z M363.995,196.721c-0.179-0.743-0.443-1.164-0.794-1.262
								c-0.055-0.013-0.103-0.017-0.144-0.011c-0.124,0.018-0.264,0.143-0.421,0.375c-0.173,0.267-0.314,0.429-0.421,0.486
								c-0.068,0.041-0.176,0.025-0.323-0.049c-0.148-0.074-0.242-0.108-0.283-0.102c-0.031,0.004-0.055,0.018-0.073,0.042
								c-0.318,0.361-0.43,0.866-0.339,1.517c0.063,0.444,0.219,0.806,0.469,1.087c0.349,0.383,0.621,0.56,0.817,0.532
								c0.454-0.064,0.853-0.41,1.196-1.038C364.007,197.704,364.112,197.179,363.995,196.721z"/>
							<path style="fill:#454F6B;" d="M371.763,190.444c0.05,1.404,0.107,2.812,0.17,4.224c0.058,1.677,0.165,3.067,0.321,4.172
								c0.051,0.362,0.111,0.716,0.182,1.064c0.033,0.164-0.005,0.317-0.117,0.459c-0.112,0.142-0.25,0.225-0.415,0.248
								c-0.32,0.045-0.619-0.133-0.897-0.537c-0.843-1.197-1.949-3.104-3.319-5.722c-0.03-0.059-0.06-0.086-0.091-0.082
								c-0.072,0.01-0.109,0.089-0.109,0.237c0.033,1.501,0.165,3.067,0.395,4.698c0.111,0.785,0.244,1.581,0.401,2.391
								c0.052,0.298-0.006,0.516-0.176,0.656c-0.062,0.082-0.134,0.13-0.217,0.141c-0.073,0.01-0.17-0.008-0.292-0.053
								c-0.165-0.05-0.27-0.083-0.314-0.098c-0.14-0.022-0.24-0.135-0.3-0.337c-0.034-0.164-0.068-0.332-0.103-0.507
								c-0.113-0.574-0.214-1.175-0.302-1.805c-0.155-1.094-0.286-2.471-0.394-4.129c-0.157-2.526-0.244-3.924-0.261-4.196
								c-0.022-0.228,0.153-0.369,0.525-0.422c0.173-0.045,0.449,0.047,0.829,0.278c0.419,0.583,0.971,1.548,1.657,2.893
								c0.655,1.287,1.223,2.254,1.705,2.902c-0.039-1.395-0.09-3.504-0.151-6.328c0.002-0.211,0.137-0.335,0.405-0.373
								c0.093-0.013,0.203-0.013,0.332,0.001c0.171,0.018,0.273,0.03,0.305,0.036C371.639,190.283,371.717,190.346,371.763,190.444z
								"/>
							<path style="fill:#454F6B;" d="M379.362,198.184c0.085,0.156,0.137,0.297,0.154,0.42c0.029,0.206-0.033,0.4-0.187,0.579
								c-0.154,0.18-0.262,0.269-0.325,0.267c-0.519-0.021-0.897-0.384-1.133-1.088c-0.255-0.764-0.518-1.396-0.789-1.895
								c-0.347,0.081-0.693,0.161-1.04,0.242c-0.395,0.109-0.693,0.277-0.892,0.505c-0.068,0.336-0.138,0.925-0.208,1.767
								c-0.069,0.778-0.159,1.375-0.268,1.791c-0.057,0.198-0.225,0.274-0.505,0.229c-0.357-0.065-0.559-0.195-0.607-0.388
								c-0.086-0.388-0.047-0.93,0.118-1.627c0.203-0.797,0.298-1.358,0.284-1.683c-0.003-0.094-0.085-0.188-0.245-0.281
								c-0.161-0.093-0.245-0.171-0.254-0.232c-0.007-0.051,0.008-0.109,0.047-0.172c0.039-0.063,0.14-0.125,0.306-0.185
								c0.165-0.06,0.253-0.128,0.263-0.203c0.113-0.542,0.272-1.544,0.476-3.005c0.169-1.266,0.341-2.243,0.518-2.932
								c0.042-0.153,0.16-0.243,0.356-0.271c0.145-0.02,0.28,0.008,0.407,0.085c0.324,0.207,0.562,0.552,0.715,1.036
								c0.122,0.415,0.238,0.83,0.35,1.246C377.761,194.751,378.581,196.683,379.362,198.184z M376.684,195.545
								c-0.085-0.378-0.213-0.796-0.383-1.257c-0.162-0.398-0.318-0.797-0.469-1.197c-0.189,0.901-0.336,1.795-0.442,2.684
								C375.55,195.721,375.981,195.645,376.684,195.545z"/>
							<path style="fill:#454F6B;" d="M386.45,188.102c-0.04,0.385-0.185,0.626-0.434,0.725c-0.648,0.26-1.784,0.641-3.408,1.145
								c0.157,2.599,0.356,4.756,0.598,6.469c0.092,0.65,0.192,1.289,0.302,1.916c0.038,0.195,0.049,0.346,0.033,0.453
								c-0.029,0.172-0.121,0.264-0.277,0.276c-0.301,0.032-0.567-0.06-0.797-0.274c-0.23-0.215-0.377-0.47-0.44-0.767
								c-0.075-0.379-0.142-0.78-0.202-1.204c-0.096-0.681-0.202-1.766-0.318-3.256c-0.107-1.427-0.218-2.511-0.333-3.254
								c-0.282,0.019-0.665,0.1-1.15,0.242c-0.556,0.163-0.943,0.259-1.159,0.29c-0.506,0.071-0.938-0.005-1.296-0.231
								c-0.162-0.253-0.244-0.385-0.245-0.395c-0.01-0.073,0.015-0.156,0.075-0.249c0.315-0.161,0.976-0.361,1.984-0.599
								c0.885-0.22,1.532-0.482,1.942-0.784c0.379,0.073,0.8,0.077,1.265,0.011c0.465-0.066,0.9-0.185,1.308-0.358
								c0.123-0.028,0.427-0.144,0.914-0.35c0.358-0.145,0.664-0.22,0.916-0.224c0.186-0.026,0.275,0.04,0.265,0.199
								C386.271,187.842,386.424,187.915,386.45,188.102z"/>
							<path style="fill:#454F6B;" d="M389.971,189.547c-0.36,0.209-0.897,0.469-1.611,0.78c-0.714,0.312-1.252,0.572-1.611,0.78
								c-0.055,0.282-0.038,0.89,0.052,1.825c0.174,0.039,0.369,0.043,0.586,0.012c0.155-0.022,0.394-0.082,0.717-0.18
								c0.323-0.098,0.562-0.158,0.717-0.18c0.289-0.041,0.546-0.014,0.77,0.081c0.173,0.186,0.265,0.31,0.273,0.372
								c0.01,0.072-0.018,0.134-0.084,0.186c-0.019,0.013-0.081,0.096-0.186,0.247c-0.07,0.105-0.167,0.16-0.292,0.167
								c-0.21,0.082-0.603,0.17-1.179,0.261c-0.484,0.079-0.862,0.196-1.135,0.35c-0.089,0.792-0.101,1.409-0.038,1.853
								c0.042,0.3,0.117,0.531,0.224,0.695c0.533,0.272,1.395,0.298,2.585,0.077c0.082-0.012,0.165-0.063,0.247-0.153
								c0.082-0.091,0.154-0.14,0.216-0.149c0.28-0.103,0.502,0.087,0.665,0.569c0.054,0.161,0.047,0.317-0.021,0.469
								c-0.068,0.152-0.184,0.244-0.348,0.278c-1.243,0.217-2.341,0.273-3.293,0.165c-0.299-0.032-0.585-0.155-0.858-0.368
								c-0.273-0.214-0.446-0.474-0.521-0.78c-0.22-0.885-0.334-1.69-0.341-2.415c-0.317-0.155-0.473-0.328-0.468-0.518
								c-0.003-0.094,0.065-0.191,0.204-0.289c0.139-0.098,0.213-0.191,0.221-0.276c0.009-0.085-0.019-0.582-0.084-1.488
								c-0.595-0.032-0.909-0.209-0.943-0.53c-0.032-0.301,0.115-0.564,0.441-0.789c0.311-0.181,0.622-0.362,0.934-0.543
								c0.354-0.25,0.809-0.493,1.365-0.73c0.487-0.206,0.975-0.406,1.463-0.602c0.05-0.017,0.111-0.031,0.184-0.042
								c0.278-0.039,0.619,0.023,1.021,0.187c0.016,0.04,0.053,0.114,0.11,0.221c0.057,0.108,0.09,0.188,0.097,0.239
								C390.063,189.413,390.036,189.485,389.971,189.547z"/>
						</g>
					</g>
					<path style="opacity:0.3;fill:#422C4F;" d="M407.512,159.615v91.528h74.963v-19.351h-43.608c-9.527,0-17.25-7.723-17.25-17.25
						v-54.927H407.512z"/>
				</g>
				<g>
					<path style="fill:#7DD3E9;" d="M516.321,141.671l-19.912,59.061l-12.223,7.847c-6.003,3.854-12.661,6.574-19.646,8.025l0,0
						c-5.857,1.217-10.392,5.861-11.471,11.744l0,0l-4.352,0l8.417,19.112l2.455-3.156l9.022,2.005
						c3.348,0.744,6.851,0.294,9.902-1.272l30.257-15.526c7.569-3.884,13.249-10.659,15.754-18.789l18.607-60.405
						c2.79-9.059-3.983-18.233-13.462-18.233l0,0C523.623,132.085,518.253,135.942,516.321,141.671z"/>
					<path style="fill:#F0BF9C;" d="M450.234,231.792l-7.215,2.475l-9.6-4.865l-8.932-4.114c-1.522-0.701-3.323-0.015-3.992,1.521
						l0,0c-0.586,1.344-0.111,2.914,1.121,3.708l4.798,3.093c1.885,1.215,2.953,3.366,2.781,5.603l0,0
						c-0.154,2.008-1.288,3.811-3.032,4.82l-12.272,7.1c-1.775,1.027-2.236,3.383-0.98,5.003l0,0
						c0.99,1.277,2.744,1.677,4.189,0.954l2.774-1.387l8.312,3.631c3.168,1.384,6.858,0.724,9.35-1.672l10.611-10.201l7.634-3.072
						L450.234,231.792z"/>
					<polygon style="fill:#E78882;" points="450.234,231.792 455.782,244.389 451.55,246.092 449.018,232.208 					"/>
				</g>
			</g>
			<g>
				<g>
					<g>
						<g>
							<path style="fill:#454F6B;" d="M141.081,238.84c-10.257,21.567-2.63,59.704,3.419,99.681l-1.271,4.588
								c-4.754,17.16-6.603,34.995-5.47,52.765l2.515,39.436h23.689c0-36.559,8.679-93.106,8.679-93.106l8.344-54.706l21.376,51.287
								v0c-4.865,19.805-5.888,40.359-3.015,60.55l5.119,35.975h24.46l0.978-91.294c0.049-4.62-0.256-9.237-0.912-13.811
								l-12.724-88.585L141.081,238.84z"/>
							<path style="fill:#422C4F;" d="M180.987,287.497l3.249-21.301c9.711-0.003,17.075-7.893,17.075-7.893
								c-1.052,8.942-8.416,15.43-15.079,16.307l0.074,0.194c3.212,8.418,5.191,17.256,5.877,26.24l1.245,16.302L180.987,287.497z"
								/>
							<g>
								<path style="fill:#797C99;" d="M150.618,325.483c-4.36-27.875-8.477-54.205-5.334-73.363
									c0.047-0.287-0.147-0.557-0.434-0.604c-0.289-0.053-0.558,0.147-0.604,0.434c-3.171,19.325,0.96,45.735,5.332,73.696
									c0.665,4.248,1.335,8.534,1.987,12.844l-1.242,4.479c-4.78,17.257-6.627,35.068-5.487,52.939l1.978,31.022
									c0.018,0.278,0.249,0.492,0.525,0.492c0.011,0,0.023,0,0.034-0.001c0.29-0.018,0.51-0.268,0.492-0.559l-1.978-31.022
									c-1.132-17.753,0.702-35.447,5.451-52.59l1.301-4.697l-0.017-0.111C151.964,334.094,151.288,329.768,150.618,325.483z"/>
								<path style="fill:#797C99;" d="M207.471,399.26c-2.877-20.217-1.866-40.521,3.005-60.351l0.042-0.167l-13.488-32.36
									c-0.112-0.269-0.42-0.391-0.688-0.284c-0.268,0.112-0.395,0.42-0.283,0.688l13.354,32.04
									c-4.867,19.907-5.871,40.288-2.984,60.581l3.922,27.562c0.037,0.263,0.262,0.452,0.52,0.452
									c0.025,0,0.049-0.002,0.074-0.005c0.288-0.041,0.487-0.307,0.447-0.595L207.471,399.26z"/>
								<path style="fill:#797C99;" d="M159.304,252.889c-0.286-0.054-0.563,0.12-0.624,0.405
									c-1.436,6.71-6.877,12.314-13.542,13.947c-0.282,0.069-0.455,0.353-0.386,0.636c0.059,0.24,0.274,0.401,0.511,0.401
									c0.042,0,0.084-0.005,0.126-0.015c7.047-1.726,12.802-7.652,14.32-14.748C159.77,253.23,159.588,252.95,159.304,252.889z"/>
							</g>
							<g>
								<path style="fill:#797C99;" d="M188.693,264.317c-0.119,0-0.237-0.04-0.333-0.119c-0.173-0.141-0.237-0.375-0.162-0.585
									c1.212-3.387,1.625-7.065,1.194-10.638c-0.034-0.288,0.171-0.55,0.459-0.585c0.293-0.04,0.551,0.171,0.586,0.459
									c0.387,3.205,0.123,6.494-0.762,9.601c2.792-2.298,4.428-5.98,4.158-9.598c-0.022-0.29,0.196-0.542,0.485-0.564
									c0.294-0.026,0.542,0.196,0.564,0.486c0.336,4.515-2.042,9.123-5.917,11.466
									C188.881,264.292,188.787,264.317,188.693,264.317z"/>
							</g>
							<path style="fill:#422C4F;" d="M216.89,245.945l-0.621-4.326l-75.187-2.78c-1.149,2.416-2.063,5.051-2.79,7.862
								C163.822,254.08,191.51,253.815,216.89,245.945z"/>
						</g>
						<g>
							<path style="fill:#EBA58E;" d="M233.971,451.898l-9.165-5.28l-0.701-11.309h-15.299l0.395,11.572l-2.712,10.389h23.676
								C231.011,455.277,232.342,453.408,233.971,451.898z"/>
							<path style="fill:#E36B85;" d="M255.316,467.922c-1.706-6.796-7.257-11.948-14.161-13.143l-0.019-0.003
								c-2.049-0.355-4.02-1.067-5.822-2.105l-1.342-0.773c-1.63,1.51-2.961,3.379-3.807,5.372h-23.676l-2.781,10.652H255.316z"/>
							<polygon style="fill:#DE7274;" points="208.807,435.309 224.105,435.309 224.354,439.322 208.944,439.322 							"/>
						</g>
						<g>
							<path style="fill:#EBA58E;" d="M170.147,451.898l-9.165-5.28l-0.701-11.309h-15.299l0.395,11.572l-2.712,10.389h23.676
								C167.186,455.277,168.518,453.408,170.147,451.898z"/>
							<path style="fill:#E36B85;" d="M191.492,467.922c-1.706-6.796-7.257-11.948-14.161-13.143l-0.019-0.003
								c-2.049-0.355-4.02-1.067-5.822-2.105l-1.342-0.773c-1.63,1.51-2.961,3.379-3.807,5.372h-23.676l-2.781,10.652H191.492z"/>
							<polygon style="fill:#DE7274;" points="144.983,435.309 160.281,435.309 160.53,439.322 145.12,439.322 							"/>
						</g>
					</g>
					<path style="fill:#654059;" d="M206.113,110.261c4.805-3.064,8.777-7.578,10.678-12.951s1.586-11.603-1.327-16.501
						c-2.914-4.898-8.635-9.089-14.326-8.77c-6.018-6.751-15.607-10.119-24.524-8.612c-8.917,1.507-16.868,7.838-20.333,16.192
						c-3.465,8.354-2.33,18.454,2.903,25.83c-3.252,9.11-9.724,17.799-14.258,26.343c-4.534,8.544-7.265,19.09-2.985,27.765
						c2.672,5.415,7.802,9.348,13.441,11.509c5.638,2.161,11.774,2.697,17.812,2.631c6.941-0.076,13.997-0.956,20.31-3.843
						c6.313-2.887,11.838-7.987,14.086-14.553c2.153-6.288,1.162-13.163,0.148-19.731
						C206.544,127.835,207.307,117.994,206.113,110.261z"/>
					<g>
						<g>
							<path style="fill:#E78882;" d="M226.256,166.071l9.51,29.241l48.306-12.493c6.488-11.836,19.463-15.217,19.463-15.217l0,0
								c0.977,2.544,0.092,5.427-2.151,6.975c-1.474,1.017-3.025,2.238-3.986,3.42c8.059,2.368,16.16,1.715,20.277,1.115
								c1.47-0.214,2.78,0.929,2.78,2.415l0,0c0,0.88-0.473,1.691-1.239,2.124l-1.785,1.009c-0.13,3.439-0.836,6.714-1.518,9.148
								c-0.708,2.527-2.928,4.356-5.549,4.475c-12.524,0.565-22.784-3.497-22.784-3.497l-49.113,19.97
								c-7.529,3.062-16.115-0.555-19.186-8.081l-6.755-16.56l-4.507-19.527l13.067-2.987L226.256,166.071z"/>
							<path style="fill:#DE7274;" d="M297.358,179.551c-0.27,2.385-1.386,4.665-3.104,6.341c-1.718,1.676-4.024,2.737-6.415,2.949
								c2.426,0.856,5.731,0.447,7.569-1.352C297.247,185.691,298.161,181.995,297.358,179.551z"/>
							<path style="fill:#DE7274;" d="M224.837,166.49l2.94,9.103c1.426,4.417,0.196,9.26-3.165,12.461l0,0
								c-3.593,3.422-5.921,7.96-6.604,12.874l-0.273,1.962l-5.211-12.775l-4.507-19.527L224.837,166.49z"/>
							<path style="fill:#DE7274;" d="M235.765,195.311l-10.257,7.579c1.929-10.867,9.82-8.923,9.82-8.923L235.765,195.311z"/>
						</g>
						<g>
							<path style="fill:#E36B85;" d="M210.253,135.537L210.253,135.537c5.244,1.937,9.344,6.123,11.172,11.406l6.45,18.648
								l-6.791,2.01l-5.922-13.101L210.253,135.537z"/>
							<path style="fill:#CE5172;" d="M212.525,144.312l2.638,10.189l5.922,13.101l3.753-1.111l-5.653-10.074
								c-1.04-1.854-1.841-3.832-2.384-5.887l0,0C216.138,148.024,214.627,145.826,212.525,144.312L212.525,144.312z"/>
						</g>
					</g>
					<g>
						<path style="fill:#E36B85;" d="M160.625,138.49c8.424-3.628,16.051-5.907,16.051-5.907h19.989
							c7.101,0,13.589,2.954,13.589,2.954l4.91,18.964l8.611,19.051c2.415,5.343,0.602,11.649-4.282,14.894l0,0
							c-2.762,1.835-4.638,4.733-5.182,8.004l0,0c-1.963,11.807-1.294,23.903,1.958,35.422l3.453,12.228
							c-49.972,8.942-82.585-1.841-82.585-1.841l8.493-18.356c5.202-11.243,7.773-23.524,7.495-35.909
							c-0.265-11.812-0.721-25.83-1.457-31.724C150.287,145.208,160.625,138.49,160.625,138.49z"/>
						<g>
							<path style="fill:#CE5172;" d="M160.544,187.102l16.151,41.966c4.406,11.45,18.139,16.071,28.57,9.614l11.003-6.81
								c-2.183-7.73-3.196-15.72-3.037-23.708l-9.466,1.044l-12.449-33.052l1.666-2.367l-14.209-27.232l-27.105,9.714l5.72,30.832
								H160.544z"/>
						</g>
					</g>
					<g>
						<path style="fill:#E36B85;" d="M159.755,182.818l29.24-11.573l-10.222-24.689c-2.936-7.092-10.916-10.639-18.148-8.066h0
							c-7.257,2.582-11.201,10.412-8.957,17.78L159.755,182.818z"/>
						<g>
							<path style="fill:#EBA58E;" d="M186.67,172.166l15.803,40.11l50.388-10.939c4.997-10.365,14.904-13.521,14.904-13.521l0,0
								c1.54,2.024,1.447,4.866-0.249,6.761c-2.172,2.425-3.258,5.075-3.258,5.075c7.497,1.953,16.081,1.914,20.318,1.738
								c1.48-0.062,2.74,1.058,2.848,2.536l0,0c0.095,1.306-0.74,2.523-2.01,2.84c-5.471,1.362-13.265,0.69-13.265,0.69
								c3.603,1.325,8.487,1.721,11.787,1.827c2.034,0.065,3.643,1.732,3.643,3.767v3.079c0,1.84-1.333,3.395-3.143,3.723
								c-15.868,2.873-30.61-6.697-30.61-6.697l-48.311,21.359c-8.016,3.544-17.385-0.123-20.865-8.167l-19.717-45.575
								L186.67,172.166z"/>
							<polygon style="fill:#DE7274;" points="186.67,172.166 164.933,180.769 167.673,187.102 187.389,173.991 							"/>
							<path style="fill:#DE7274;" d="M202.473,212.276l-11.858,8.855c1.929-11.572,11.294-10.286,11.294-10.286L202.473,212.276z"
								/>
						</g>
					</g>
					<g>
						<g>
							<path style="fill:#EBA58E;" d="M176.676,114.173v18.411c6.575,9.907,16.836,5.879,19.989,0v-7.54L176.676,114.173z"/>
							<path style="fill:#DE7274;" d="M176.676,116.756c7.54,11.181,12.888,15.74,19.989,13.373v-5.085l-19.989-10.871V116.756z"/>
						</g>
						<path style="fill:#EBA58E;" d="M210.79,91.783c-0.025-0.679-0.086-1.347-0.176-2.006c-2.025-4.218-4.742-8.077-8.301-11.103
							c-4.384,10.77-14.744,19.594-26.18,21.702c0.571,2.88,0.193,5.94-1.061,8.595c-0.418,0.886-0.941,1.719-1.538,2.496
							c0.8,3.678,3.001,6.922,6.177,9.007l6.891,4.524c2.718,1.785,5.937,2.653,9.184,2.477c5.626-0.304,10.624-3.688,12.997-8.797
							v0c1.82-3.92,2.687-8.216,2.53-12.535L210.79,91.783z"/>
						<g>
							<path style="fill:#654059;" d="M183.039,97.905h11.413c-0.286-1.323-1.576-2.402-2.859-2.831
								c-1.284-0.429-2.699-0.312-3.998,0.07C185.989,95.615,184.236,96.738,183.039,97.905z"/>
							<path style="fill:#422C4F;" d="M190.311,105.453L190.311,105.453c0.727,0,1.316-0.589,1.316-1.316v-1.444
								c0-0.727-0.589-1.316-1.316-1.316l0,0c-0.727,0-1.316,0.589-1.316,1.316v1.444
								C188.995,104.863,189.584,105.453,190.311,105.453z"/>
							<path style="fill:#654059;" d="M209.935,97.905h-7.055c0.177-1.323,0.974-2.402,1.768-2.831
								c0.794-0.429,1.668-0.312,2.471,0.07C208.111,95.615,209.195,96.737,209.935,97.905z"/>
							<path style="fill:#422C4F;" d="M205.742,105.453L205.742,105.453c-0.502,0-0.91-0.407-0.91-0.91v-2.257
								c0-0.503,0.407-0.91,0.91-0.91l0,0c0.502,0,0.91,0.407,0.91,0.91v2.257C206.652,105.045,206.244,105.453,205.742,105.453z"/>
							<path style="fill:#DE7274;" d="M196.297,110.464h8.332c-0.548,0.887-1.645,1.627-2.937,1.708
								c-0.916,0.057-1.833-0.147-2.65-0.465C198.225,111.39,197.021,110.891,196.297,110.464z"/>
							<path style="fill:#FFFFFF;" d="M202.473,117.006c-4.903-0.083-9.807-0.167-14.71-0.25c1.684,2.298,4.486,3.955,7.334,4.007
								C197.945,120.816,200.705,119.24,202.473,117.006z"/>
						</g>
						<g>
							<path style="fill:#EBA58E;" d="M170.133,104.381c-1.884-1.031-4.524-0.884-5.887,0.774c-0.824,1.002-1.069,2.376-0.978,3.67
								c0.243,3.476,2.91,6.646,6.293,7.481c1.156,0.285,2.456,0.296,3.454-0.354c0.969-0.631,1.491-1.791,1.618-2.94
								C174.985,109.805,172.972,105.934,170.133,104.381z"/>
							<path style="fill:#DE7274;" d="M165.647,106.991c0.479-0.455,1.166-0.652,1.826-0.617c0.66,0.035,1.293,0.285,1.86,0.625
								c1.793,1.073,2.968,3.11,2.998,5.2c0.012,0.846-0.234,1.81-0.988,2.193c-0.51,0.259-1.148,0.175-1.642-0.114
								c-0.494-0.288-0.861-0.756-1.142-1.254c-0.416-0.739-0.668-1.63-0.407-2.436c0.262-0.806,1.178-1.425,1.974-1.136
								c-0.3-0.799-0.913-1.506-1.626-1.974C167.786,107.009,166.499,106.948,165.647,106.991z"/>
						</g>
					</g>
				</g>
				<g>
					<path style="fill:#FBEED1;" d="M285.293,27.921c-20.481,0-37.085,16.603-37.085,37.085c0,5.478,1.197,10.673,3.329,15.353
						l-14.282,18.735l22.681-7.039c6.632,6.22,15.546,10.036,25.356,10.036c20.481,0,37.085-16.603,37.085-37.085
						C322.378,44.524,305.774,27.921,285.293,27.921z"/>
					<path style="fill:#CC6164;" d="M305.919,50.343L305.919,50.343c-5.145-5.145-13.488-5.145-18.633,0l-1.993,1.993l-1.993-1.993
						c-5.145-5.145-13.488-5.145-18.633,0l0,0c-5.145,5.145-5.145,13.488,0,18.633l1.993,1.993l0,0l18.633,18.633l18.633-18.633
						l1.993-1.993C311.064,63.83,311.064,55.488,305.919,50.343z"/>
				</g>
			</g>
		</g>
	</g>
</g>
</svg>
